<?xml version="1.0" encoding="utf-8"?>
<!-- Generator: Adobe Illustrator 22.0.0, SVG Export Plug-In . SVG Version: 6.00 Build 0)  -->
<svg version="1.1" id="Layer_1" xmlns="http://www.w3.org/2000/svg" xmlns:xlink="http://www.w3.org/1999/xlink" x="0px" y="0px"
	 viewBox="0 0 22 23" style="enable-background:new 0 0 22 23;" xml:space="preserve">
<style type="text/css">
	.st0{fill:#FFFFFF;}
</style>
<g>
	<rect x="9" y="21" class="st0" width="2" height="2"/>
	<path class="st0" d="M12,16c-1.7,0-3,1.3-3,3v1h2v-1c0-0.6,0.4-1,1-1c1.7,0,3-1.3,3-3v-1c0-1.7-1.3-3-3-3h-2c-1.7,0-3,1.3-3,3h2
		c0-0.6,0.4-1,1-1h2c0.6,0,1,0.4,1,1v1C13,15.6,12.6,16,12,16z"/>
	<path class="st0" d="M18,0h-2v2H6V0H4v2H0v19h8v-2c0-1.8,1.2-3.4,3-3.9l1-0.1v-1h-2v1H6v-1c0-2.2,1.8-4,4-4h2c2.2,0,4,1.8,4,4v1
		c0,1.8-1.2,3.4-3,3.9L12,19v2h10V2h-4V0z M20,4v3H2V4h2v2h2V4h10v2h2V4H20z"/>
</g>
</svg>
