<svg id="Layer_1" data-name="Layer 1" xmlns="http://www.w3.org/2000/svg" viewBox="0 0 22 23"><defs><style>.cls-1{fill:#fff;}</style></defs><title>faq1</title><rect class="cls-1" x="9" y="21" width="2" height="2"/><path class="cls-1" d="M12,16a3,3,0,0,0-3,3v1h2V19a1,1,0,0,1,1-1,3,3,0,0,0,3-3V14a3,3,0,0,0-3-3H10a3,3,0,0,0-3,3H9a1,1,0,0,1,1-1h2a1,1,0,0,1,1,1v1A1,1,0,0,1,12,16Z"/><path class="cls-1" d="M18,0H16V2H6V0H4V2H0V21H8V19a4,4,0,0,1,3-3.86L12,15V14H10v1H6V14a4,4,0,0,1,4-4h2a4,4,0,0,1,4,4v1a4,4,0,0,1-3,3.86L12,19v2H22V2H18Zm2,4V7H2V4H4V6H6V4H16V6h2V4Z"/></svg>