<?xml version="1.0" encoding="utf-8"?>
<!-- Generator: Adobe Illustrator 22.0.0, SVG Export Plug-In . SVG Version: 6.00 Build 0)  -->
<svg version="1.1" id="Layer_1" xmlns="http://www.w3.org/2000/svg" xmlns:xlink="http://www.w3.org/1999/xlink" x="0px" y="0px"
	 viewBox="0 0 22.5 14" style="enable-background:new 0 0 22.5 14;" xml:space="preserve">
<style type="text/css">
	.st0{fill:#FFFFFF;}
</style>
<path class="st0" d="M11.3,0C7.4,0,3.6,2.2,0.5,6.4L0,7l0.5,0.6C3.6,11.8,7.4,14,11.3,14s7.7-2.2,10.8-6.4L22.5,7l-0.5-0.6
	C18.9,2.2,15.2,0,11.3,0z M2.5,7c2.6-3.2,5.6-5,8.7-5c-2.8,0-5,2.3-4.9,5c0,2.5,1.8,4.5,4.3,4.9C7.7,11.7,5,10,2.5,7z M12,11.9
	c2.7-0.4,4.6-2.9,4.2-5.6C15.9,3.8,13.8,2,11.3,2c3.1,0,6,1.7,8.7,5C17.6,10,14.8,11.7,12,11.9z"/>
</svg>
