<?xml version="1.0" encoding="utf-8"?>
<!-- Generator: Adobe Illustrator 22.0.0, SVG Export Plug-In . SVG Version: 6.00 Build 0)  -->
<svg version="1.1" id="Layer_1" xmlns="http://www.w3.org/2000/svg" xmlns:xlink="http://www.w3.org/1999/xlink" x="0px" y="0px"
	 viewBox="0 0 14 20" style="enable-background:new 0 0 14 20;" xml:space="preserve">
<style type="text/css">
	.st0{fill:#FFFFFF;}
</style>
<g>
	<path class="st0" d="M7,20c1.1,0,2-0.9,2-2H5C5,19.1,5.9,20,7,20z"/>
	<path class="st0" d="M13.5,15.6L13,15V8c0-2.9-2.1-5.4-5-5.9V1c0-0.6-0.4-1-1-1S6,0.4,6,1v1.1C3.1,2.6,1,5.1,1,8v7.1l-0.5,0.5
		C-0.3,16.4-0.1,17,1,17h12C14.1,17,14.4,16.4,13.5,15.6z"/>
</g>
</svg>
