<svg id="Layer_1" data-name="Layer 1" xmlns="http://www.w3.org/2000/svg" viewBox="0 0 22 22"><defs><style>.cls-1{fill:#fff;}</style></defs><title>settings1</title><path class="cls-1" d="M18.61,6.22l1.58-1.58L17.36,1.81,15.78,3.39A9,9,0,0,0,13,2.23V0H9V2.23A9,9,0,0,0,6.22,3.39L4.64,1.81,1.81,4.64,3.39,6.22A9,9,0,0,0,2.23,9H0v4H2.23a9,9,0,0,0,1.16,2.78L1.81,17.36l2.83,2.83,1.57-1.58A9.12,9.12,0,0,0,9,19.77V22h4V19.77a9,9,0,0,0,2.78-1.16l1.58,1.58,2.83-2.82-1.58-1.58A9.12,9.12,0,0,0,19.77,13H22V9H19.77A9,9,0,0,0,18.61,6.22ZM10,14.41l-2.71-2.7,1.42-1.42L10,11.59l4.29-4.3,1.42,1.42Z"/></svg>