<?xml version="1.0" encoding="utf-8"?>
<!-- Generator: Adobe Illustrator 22.0.0, SVG Export Plug-In . SVG Version: 6.00 Build 0)  -->
<svg version="1.1" id="Layer_1" xmlns="http://www.w3.org/2000/svg" xmlns:xlink="http://www.w3.org/1999/xlink" x="0px" y="0px"
	 viewBox="0 0 22 22" style="enable-background:new 0 0 22 22;" xml:space="preserve">
<style type="text/css">
	.st0{fill:#FFFFFF;}
</style>
<path class="st0" d="M18.6,6.2l1.6-1.6l-2.8-2.8l-1.6,1.6C14.9,2.8,14,2.5,13,2.2V0H9v2.2C8,2.5,7.1,2.8,6.2,3.4L4.6,1.8L1.8,4.6
	l1.6,1.6C2.8,7.1,2.5,8,2.2,9H0v4h2.2c0.2,1,0.6,1.9,1.2,2.8l-1.6,1.6l2.8,2.8l1.6-1.6C7.1,19.2,8,19.5,9,19.8V22h4v-2.2
	c1-0.2,1.9-0.6,2.8-1.2l1.6,1.6l2.8-2.8l-1.6-1.6c0.5-0.9,0.9-1.8,1.2-2.8H22V9h-2.2C19.5,8,19.2,7.1,18.6,6.2z M10,14.4l-2.7-2.7
	l1.4-1.4l1.3,1.3l4.3-4.3l1.4,1.4L10,14.4z"/>
</svg>
